<?xml version="1.0" encoding="UTF-8"?>
<svg width="190px" height="32px" viewBox="0 0 190 32" version="1.1" xmlns="http://www.w3.org/2000/svg" xmlns:xlink="http://www.w3.org/1999/xlink">
    <!-- Generator: sketchtool 52.6 (67491) - http://www.bohemiancoding.com/sketch -->
    <title>A5BBDBA9-7BFD-4499-969A-9E33F5E17738@3x</title>
    <desc>Created with sketchtool.</desc>
    <g id="Page-1" stroke="none" stroke-width="1" fill="none" fill-rule="evenodd">
        <g id="lg2-login_add" transform="translate(-170.000000, -59.000000)">
            <g id="Protean_logo-Copy" transform="translate(165.000000, 38.000000)">
                <g id="Group" transform="translate(5.333333, 21.232227)">
                    <path d="M37.1562678,12.3623312 C37.1562678,4.98015143 42.8442677,-0.000132701413 50.3696008,-0.000132701413 C56.6696007,-0.000132701413 59.838934,3.65446429 61.2776006,6.95209447 L55.0136007,9.85427444 C54.4016008,7.99114656 52.5296008,6.37882436 50.3696008,6.37882436 C46.8776009,6.37882436 44.537601,9.03019864 44.537601,12.3623312 C44.537601,15.6944637 46.8776009,18.345838 50.3696008,18.345838 C52.5296008,18.345838 54.4016008,16.7335158 55.0136007,14.870388 L61.2776006,17.7367385 C59.8736006,20.9255536 56.6696007,24.7247951 50.3696008,24.7247951 C42.8442677,24.7247951 37.1562678,19.7073546 37.1562678,12.3623312" id="Fill-1" fill="#E1E6EA"></path>
                    <path d="M63.4065321,25.2975342 C63.8025321,25.5125105 64.3425321,25.6199986 64.7745321,25.6199986 C66.034532,25.6199986 66.826532,25.4050223 67.042532,24.9392404 L67.186532,24.5809465 L60.3465322,6.98739315 L67.186532,6.98739315 L70.4985319,16.8776295 L73.8478651,6.98739315 L80.6878649,6.98739315 L73.1265318,26.4440744 C71.5785319,30.4582921 68.6985319,31.2093821 65.0265321,31.3168703 C64.5585321,31.3168703 63.1185321,31.2093821 62.5065321,31.0302352 L63.4065321,25.2975342 Z" id="Fill-4" fill="#E1E6EA"></path>
                    <path d="M90.4113342,19.0269943 C92.1753342,19.0269943 93.6513341,17.8087952 93.6513341,15.6232028 C93.6513341,13.4734398 92.1753342,12.2552408 90.4113342,12.2552408 C89.5473342,12.2552408 88.3233342,12.6851934 87.7113342,13.4376105 L87.7113342,17.880454 C88.3233342,18.6328711 89.5473342,19.0269943 90.4113342,19.0269943 Z M81.2300008,24.2939124 L81.2300008,0.394388601 L87.7113343,0.394388601 L87.7113343,8.81429303 C89.0793344,7.16614152 90.8433344,6.55704205 92.6073345,6.55704205 C96.8913346,6.55704205 100.275335,9.89050146 100.275335,15.6232023 C100.275335,21.5708795 96.8193346,24.725192 92.6073345,24.725192 C90.8433344,24.725192 89.1873344,24.1147655 87.7113343,22.466614 L87.7113343,24.2939124 L81.2300008,24.2939124 Z" id="Fill-6" fill="#E1E6EA"></path>
                    <path d="M110.252271,11.4663311 C108.272271,11.4663311 107.624271,12.7561888 107.408271,13.5444352 L113.132271,13.5444352 C112.952271,12.7920182 112.340271,11.4663311 110.252271,11.4663311 M100.784271,15.6238663 C100.784271,10.6064259 104.636271,6.55770585 110.252271,6.55770585 C115.364271,6.55770585 119.289604,10.2123027 119.289604,16.3032975 L119.289604,17.6303117 L107.480271,17.6303117 C107.840271,18.7396955 109.100271,19.8145769 111.224271,19.8145769 C112.196271,19.8145769 114.356271,19.3487949 115.220271,18.5963779 L117.885604,22.5734393 C116.156271,24.0437709 113.060271,24.7245291 110.468271,24.7245291 C105.032271,24.7245291 100.784271,21.3207379 100.784271,15.6238663" id="Fill-8" fill="#E1E6EA"></path>
                    <polygon id="Fill-10" fill="#E1E6EA" points="120.803996 24.2949748 127.285329 24.2949748 127.285329 0.394123194 120.803996 0.394123194"></polygon>
                    <polygon id="Fill-12" fill="#E1E6EA" points="130.166667 24.2949748 136.648 24.2949748 136.648 0.394123194 130.166667 0.394123194"></polygon>
                    <path d="M151.266131,24.2943121 L151.266131,22.3595254 C150.258131,23.4702363 148.350131,24.7242646 145.290132,24.7242646 C141.258132,24.7242646 139.528798,22.323696 139.528798,19.3498572 L139.528798,6.98739315 L146.010132,6.98739315 L146.010132,16.5896677 C146.010132,18.3466345 146.946132,19.0273928 148.530131,19.0273928 C149.970131,19.0273928 150.726131,18.2749757 151.266131,17.6645492 L151.266131,6.98739315 L157.747464,6.98739315 L157.747464,24.2943121 L151.266131,24.2943121 Z" id="Fill-13" fill="#E1E6EA"></path>
                    <path d="M182.844,24.2943122 L182.844,14.1890993 C182.844,13.1500472 182.304,12.2556396 180.864,12.2556396 C179.424,12.2556396 178.632,13.1142178 178.198667,13.6158291 L178.198667,24.2943122 L171.718667,24.2943122 L171.718667,14.1890993 C171.718667,13.1500472 171.214667,12.2556396 169.738667,12.2556396 C168.334667,12.2556396 167.542667,13.1142178 167.110667,13.6158291 L167.110667,24.2943122 L160.629333,24.2943122 L160.629333,6.98739331 L167.110667,6.98739331 L167.110667,8.95800937 C167.866667,7.99061603 170.062667,6.55744072 172.870667,6.55744072 C175.32,6.55744072 177.084,7.45317529 177.876,9.60293826 C178.884,8.09810418 181.152,6.55744072 183.96,6.55744072 C187.164,6.55744072 189.324,8.16976295 189.324,11.7527012 L189.324,24.2943122 L182.844,24.2943122 Z" id="Fill-14" fill="#E1E6EA"></path>
                    <path d="M3.64626675,19.2910697 C2.56760005,17.4491741 2.02226671,15.3684159 2.02226671,13.0978948 C2.02226671,5.98775313 7.51826685,0.826995224 15.090267,0.826995224 C16.8049338,0.826995224 18.4529338,1.10036013 19.9982672,1.64045488 L15.4596004,6.53846399 C15.3396004,6.52386683 15.218267,6.50926968 15.090267,6.50926968 C11.4049336,6.50926968 8.73160021,9.28007516 8.73160021,13.0978948 C8.73160021,13.3208331 8.75426688,13.5358094 8.77960022,13.7494587 L3.64626675,19.2910697 Z" id="Fill-16" fill="#E1E6EA"></path>
                    <path d="M15.0903997,25.3679989 C12.9317331,25.3679989 10.8370665,24.9234492 8.9970665,24.0781412 L13.3050664,19.4256295 C13.9223997,19.6007954 14.5090664,19.6857243 15.0903997,19.6857243 C18.775733,19.6857243 21.4503996,16.9149187 21.4503996,13.0970989 C21.4503996,12.3818383 21.3450663,11.6692316 21.1343996,10.9752032 L25.8583995,5.87548777 C27.3663995,7.91643557 28.1597328,10.4019331 28.1597328,13.0970989 C28.1597328,20.2072408 22.6637329,25.3679989 15.0903997,25.3679989" id="Fill-17" fill="#E1E6EA"></path>
                    <polygon id="Fill-15" fill="#F3A93F" points="5.00799986 25.8048521 0 25.8048521 23.1693327 0.794616084 28.1773326 0.794616084"></polygon>
                </g>
            </g>
        </g>
    </g>
</svg>